<svg width="201" height="109" viewBox="0 0 201 109" fill="none" xmlns="http://www.w3.org/2000/svg">
<path d="M62.541 100C62.2155 100 62.0527 99.821 62.0527 99.4629V86.5332C62.0527 86.1751 62.2155 85.9961 62.541 85.9961H64.6211C64.8685 85.9961 65.054 86.1914 65.1777 86.582L67.9707 95.3418C68.2572 96.2402 68.4264 96.7839 68.4785 96.9727C68.5306 97.1549 68.6055 97.4935 68.7031 97.9883H68.7617C68.8594 97.4935 68.9342 97.1549 68.9863 96.9727C69.0384 96.7839 69.2077 96.2402 69.4941 95.3418L72.2871 86.582C72.4108 86.1914 72.5964 85.9961 72.8438 85.9961H74.9238C75.2493 85.9961 75.4121 86.1751 75.4121 86.5332V99.4629C75.4121 99.821 75.2493 100 74.9238 100H74.0254C73.6999 100 73.5371 99.821 73.5371 99.4629V89.2188C73.5371 88.9583 73.5436 88.6979 73.5566 88.4375H73.5176L69.9141 99.4043C69.7839 99.8014 69.569 100 69.2695 100H68.1953C67.8958 100 67.681 99.8014 67.5508 99.4043L63.9473 88.4375H63.9082C63.9212 88.6979 63.9277 88.9583 63.9277 89.2188V99.4629C63.9277 99.821 63.765 100 63.4395 100H62.541ZM82.2207 100C81.8952 100 81.7324 99.821 81.7324 99.4629V86.5332C81.7324 86.1751 81.8952 85.9961 82.2207 85.9961H83.1191C83.4447 85.9961 83.6074 86.1751 83.6074 86.5332V99.4629C83.6074 99.821 83.4447 100 83.1191 100H82.2207ZM90.416 100C90.0905 100 89.9277 99.821 89.9277 99.4629V86.5332C89.9277 86.1751 90.0905 85.9961 90.416 85.9961H91.666C92.1217 85.9961 92.4473 86.1589 92.6426 86.4844L98.7559 96.7285H98.7949C98.7819 96.4681 98.7754 96.2077 98.7754 95.9473V86.5332C98.7754 86.1751 98.9382 85.9961 99.2637 85.9961H100.162C100.488 85.9961 100.65 86.1751 100.65 86.5332V99.4629C100.65 99.821 100.488 100 100.162 100H99.3027C98.847 100 98.5215 99.8372 98.3262 99.5117L91.8223 88.6426H91.7832C91.7962 88.903 91.8027 89.1634 91.8027 89.4238V99.4629C91.8027 99.821 91.64 100 91.3145 100H90.416ZM107.459 100C107.133 100 106.971 99.821 106.971 99.4629V86.5332C106.971 86.1751 107.133 85.9961 107.459 85.9961H108.357C108.683 85.9961 108.846 86.1751 108.846 86.5332V99.4629C108.846 99.821 108.683 100 108.357 100H107.459ZM115.654 100C115.329 100 115.166 99.821 115.166 99.4629V86.5332C115.166 86.1751 115.329 85.9961 115.654 85.9961H123.613C123.971 85.9961 124.15 86.1426 124.15 86.4355V87.1582C124.15 87.4512 123.971 87.5977 123.613 87.5977H117.041V92.2266H122.773C123.132 92.2266 123.311 92.373 123.311 92.666V93.3887C123.311 93.6816 123.132 93.8281 122.773 93.8281H117.041V99.4629C117.041 99.821 116.878 100 116.553 100H115.654ZM128.84 86.6406C128.56 86.2109 128.648 85.9961 129.104 85.9961H130.197C130.484 85.9961 130.718 86.1556 130.9 86.4746L133.381 90.7422C133.654 91.2109 133.889 91.6211 134.084 91.9727C134.279 92.3177 134.468 92.6855 134.65 93.0762H134.689C134.872 92.6855 135.061 92.3177 135.256 91.9727C135.451 91.6211 135.686 91.2109 135.959 90.7422L138.439 86.4746C138.622 86.1556 138.856 85.9961 139.143 85.9961H140.236C140.692 85.9961 140.78 86.2109 140.5 86.6406L135.607 94.2383V99.4629C135.607 99.821 135.445 100 135.119 100H134.221C133.895 100 133.732 99.821 133.732 99.4629V94.2383L128.84 86.6406Z" fill="#E2E8F0"/>
<circle cx="99.5" cy="68.5" r="6.5" fill="#FF6262"/>
<circle cx="99.5" cy="27.5" r="6.5" fill="#FF6262"/>
<circle cx="78.5" cy="6.5" r="5.5" stroke="#FF6262" stroke-width="2"/>
<circle cx="120.5" cy="6.5" r="5.5" stroke="#FF6262" stroke-width="2"/>
<line x1="99.5" y1="33" x2="99.5" y2="63" stroke="#FF6262" stroke-width="3"/>
<line x1="78.4541" y1="26.3327" x2="99.6673" y2="47.5459" stroke="#FF6262" stroke-width="3"/>
<line x1="99.672" y1="47.1405" x2="120.885" y2="25.9273" stroke="#FF6262" stroke-width="3"/>
<line x1="120.5" y1="27" x2="120.5" y2="12" stroke="#FF6262" stroke-width="3"/>
<line x1="78.5" y1="27" x2="78.5" y2="12" stroke="#FF6262" stroke-width="3"/>
<path d="M78.1109 26.7901C77.9797 26.7583 77.8386 26.7479 77.7033 26.7479C77.6527 26.7479 77.6823 26.8574 77.633 26.8603C77.6015 26.8622 77.4925 26.8873 77.4925 26.9166" stroke="#FF6262" stroke-linecap="round"/>
<path d="M121.205 26.6478C121.209 26.6822 121.356 26.715 121.39 26.715C121.445 26.715 121.487 26.7598 121.541 26.7598" stroke="#FF6262" stroke-linecap="round"/>
</svg>

